<?xml version="1.0" encoding="utf-8"?>
<!-- Generated by Mocodo 4.2.8 -->
<svg width="322" height="304" viewBox="0 0 322 304" xmlns="http://www.w3.org/2000/svg">
<rect x="0" y="0" width="322" height="304" fill="#f5f5f5" stroke="none" stroke-width="0"/>

<!-- Association CONTENIR -->
<g>
	<line x1="153" y1="152" x2="153" y2="51" stroke="#35978f" stroke-width="2"/>
	<line x1="45" y1="51" x2="153" y2="51" stroke="#35978f" stroke-width="2"/>
	<g>
		<path d="M179 26 a14 14 90 0 1 14 14 V51 h-80 V40 a14 14 90 0 1 14 -14" fill="#80cdc1" stroke="#80cdc1" stroke-width="0"/>
		<path d="M193 51 v11 a14 14 90 0 1 -14 14 H127 a14 14 90 0 1 -14 -14 V51 H80" fill="#c7eae5" stroke="#c7eae5" stroke-width="0"/>
		<rect x="113" y="26" width="80" height="50" fill="none" rx="14" stroke="#35978f" stroke-width="2"/>
		<line x1="113" y1="51" x2="193" y2="51" stroke="#35978f" stroke-width="1"/>
		<text x="121" y="43.75" fill="#000000" font-family="Verdana" font-size="12">CONTENIR</text>
	</g>
	<text x="158" y="93" fill="#8c510a" font-family="Verdana" font-size="12">1,1</text>
	<text x="86" y="68" fill="#8c510a" font-family="Verdana" font-size="12">0,N</text>
</g>

<!-- Association CATEGORISER -->
<g>
	<line x1="153" y1="152" x2="153" y2="253" stroke="#35978f" stroke-width="2"/>
	<line x1="275" y1="253" x2="153" y2="253" stroke="#35978f" stroke-width="2"/>
	<g>
		<path d="M191 228 a14 14 90 0 1 14 14 V253 h-104 V242 a14 14 90 0 1 14 -14" fill="#80cdc1" stroke="#80cdc1" stroke-width="0"/>
		<path d="M205 253 v11 a14 14 90 0 1 -14 14 H115 a14 14 90 0 1 -14 -14 V253 H104" fill="#c7eae5" stroke="#c7eae5" stroke-width="0"/>
		<rect x="101" y="228" width="104" height="50" fill="none" rx="14" stroke="#35978f" stroke-width="2"/>
		<line x1="101" y1="253" x2="205" y2="253" stroke="#35978f" stroke-width="1"/>
		<text x="109" y="245.75" fill="#000000" font-family="Verdana" font-size="12">CATEGORISER</text>
	</g>
	<text x="158" y="220" fill="#8c510a" font-family="Verdana" font-size="12">0,N</text>
	<text x="210" y="270" fill="#8c510a" font-family="Verdana" font-size="12">0,N</text>
</g>

<!-- Entity LISTE -->
<g>
	<g>
		<rect x="9" y="9" width="72" height="25" fill="#dfc27d" stroke="none" stroke-width="0" opacity="1"/>
		<rect x="9" y="34" width="72" height="59" fill="#f6e8c3" stroke="none" stroke-width="0" opacity="1"/>
		<rect x="9" y="9" width="72" height="84" fill="none" stroke="#bf812d" stroke-width="2" opacity="1"/>
		<line x1="9" y1="34" x2="81" y2="34" stroke="#bf812d" stroke-width="1"/>
	</g>
	<text x="27" y="26.75" fill="#000000" font-family="Verdana" font-size="12">LISTE</text>
	<text x="14" y="51.8" fill="#000000" font-family="Verdana" font-size="12">code_liste</text>
	<line x1="14" y1="54" x2="76" y2="54" stroke="#000000" stroke-width="1"/>
	<text x="14" y="68.8" fill="#000000" font-family="Verdana" font-size="12">titre</text>
	<text x="14" y="85.8" fill="#000000" font-family="Verdana" font-size="12">position</text>
</g>

<!-- Entity CARTE -->
<g>
	<g>
		<rect x="114" y="101" width="78" height="25" fill="#dfc27d" stroke="none" stroke-width="0" opacity="1"/>
		<rect x="114" y="126" width="78" height="77" fill="#f6e8c3" stroke="none" stroke-width="0" opacity="1"/>
		<rect x="114" y="101" width="78" height="102" fill="none" stroke="#bf812d" stroke-width="2" opacity="1"/>
		<line x1="114" y1="126" x2="192" y2="126" stroke="#bf812d" stroke-width="1"/>
	</g>
	<text x="133" y="118.75" fill="#000000" font-family="Verdana" font-size="12">CARTE</text>
	<text x="119" y="143.8" fill="#000000" font-family="Verdana" font-size="12">code_carte</text>
	<line x1="119" y1="146" x2="186" y2="146" stroke="#000000" stroke-width="1"/>
	<text x="119" y="160.8" fill="#000000" font-family="Verdana" font-size="12">contenu</text>
	<text x="119" y="177.8" fill="#000000" font-family="Verdana" font-size="12">position</text>
	<text x="119" y="194.8" fill="#000000" font-family="Verdana" font-size="12">couleur</text>
</g>

<!-- Entity LABEL -->
<g>
	<g>
		<rect x="237" y="211" width="76" height="25" fill="#dfc27d" stroke="none" stroke-width="0" opacity="1"/>
		<rect x="237" y="236" width="76" height="59" fill="#f6e8c3" stroke="none" stroke-width="0" opacity="1"/>
		<rect x="237" y="211" width="76" height="84" fill="none" stroke="#bf812d" stroke-width="2" opacity="1"/>
		<line x1="237" y1="236" x2="313" y2="236" stroke="#bf812d" stroke-width="1"/>
	</g>
	<text x="256" y="228.75" fill="#000000" font-family="Verdana" font-size="12">LABEL</text>
	<text x="242" y="253.8" fill="#000000" font-family="Verdana" font-size="12">code_label</text>
	<line x1="242" y1="256" x2="307" y2="256" stroke="#000000" stroke-width="1"/>
	<text x="242" y="270.8" fill="#000000" font-family="Verdana" font-size="12">nom</text>
	<text x="242" y="287.8" fill="#000000" font-family="Verdana" font-size="12">couleur</text>
</g>
</svg>